<?xml version="1.0" encoding="UTF-8"?>
<svg version="1.1" viewBox="0 -256 1792 1792" xmlns="http://www.w3.org/2000/svg" xmlns:cc="http://creativecommons.org/ns#" xmlns:dc="http://purl.org/dc/elements/1.1/" xmlns:rdf="http://www.w3.org/1999/02/22-rdf-syntax-ns#">
<metadata>
<rdf:RDF>
<cc:Work rdf:about="">
<dc:format>image/svg+xml</dc:format>
<dc:type rdf:resource="http://purl.org/dc/dcmitype/StillImage"/>
</cc:Work>
</rdf:RDF>
</metadata>
<g transform="matrix(1 0 0 -1 0 1536)">
<path fill="#161616" d="m1386.3 585.98q0 11-2 16-3 8-38.5 29.5t-88.5 49.5l-53 29q-5 3-19 13t-25 15-21 5q-18 0-47-32.5t-57-65.5-44-33q-7 0-16.5 3.5t-15.5 6.5-17 9.5-14 8.5q-99 55-170.5 126.5t-126.5 170.5q-2 3-8.5 14t-9.5 17-6.5 15.5-3.5 16.5q0 13 20.5 33.5t45 38.5 45 39.5 20.5 36.5q0 10-5 21t-15 25-13 19q-3 6-15 28.5t-25 45.5-26.5 47.5-25 40.5-16.5 18-16 2q-48 0-101-22-46-21-80-94.5t-34-130.5q0-16 2.5-34t5-30.5 9-33 10-29.5 12.5-33q9-24 11-30 60-164 216.5-320.5t320.5-216.5q6-2 30-11 24-9 33-12.5t29.5-10 33-9 30.5-5 34-2.5q57 0 130.5 34t94.5 80q22 53 22 101zm256 777v-960q0-119-84.5-203.5t-203.5-84.5h-960q-119 0-203.5 84.5t-84.5 203.5v960q0 119 84.5 203.5t203.5 84.5h960q119 0 203.5-84.5t84.5-203.5z"/>
</g>
</svg>
